<?xml version="1.0" encoding="UTF-8"?><svg id="Contours" xmlns="http://www.w3.org/2000/svg" viewBox="0 0 1359.61 1270.84"><defs><style>.cls-1{fill:#323232;}.cls-2{fill:#2a9b1b;}</style></defs><path id="Icon_material-date-range-2" class="cls-2" d="M3.73,5.59h-1.24v1.24h1.24v-1.24Zm2.48,0h-1.24v1.24h1.24v-1.24Zm2.48,0h-1.24v1.24h1.25v-1.24Zm1.24-4.35h-.62V0h-1.24V1.24H3.11V0H1.86V1.24h-.62C.56,1.24,0,1.8,0,2.48h0V11.18c0,.69,.55,1.24,1.24,1.24H9.94c.68,0,1.24-.56,1.24-1.24V2.48c0-.68-.56-1.24-1.24-1.24h0Zm0,9.94H1.24V4.35H9.94v6.83Z"/><path id="Icon_awesome-user-edit" class="cls-1" d="M747.83,894.27c103.98,0,188.27-84.29,188.27-188.27s-84.29-188.27-188.27-188.27-188.27,84.29-188.27,188.27h0c0,103.98,84.29,188.27,188.27,188.27Zm131.79,47.07h-24.56c-68.05,31.38-146.42,31.38-214.47,0h-24.56c-109.19,.02-197.69,88.54-197.69,197.73v61.39c.16,38.89,31.71,70.33,70.6,70.36h404.17c-3.62-10.03-4.92-20.75-3.81-31.35l9.99-89.59,1.76-16.37,11.62-11.62,113.7-113.7c-37.06-42.41-90.61-66.8-146.93-66.92l.16,.08Zm66.71,213.73l-9.99,89.72c-1.46,12.85,7.77,24.45,20.61,25.91,1.76,.2,3.53,.2,5.29,0l89.59-9.99,202.72-202.72-105.47-105.6-202.76,202.68Zm403.19-241.81l-55.83-55.83c-13.75-13.69-35.98-13.69-49.73,0l-55.58,55.66-6.02,6.02,105.6,105.47,61.39-61.39c13.66-13.81,13.66-36.04,0-49.85l.16-.08Z"/></svg>