<svg xmlns="http://www.w3.org/2000/svg" width="11.111" height="10" viewBox="0 0 11.111 10">
  <path id="Icon_material-business" data-name="Icon material-business" d="M8.556,6.722V4.5H3v10H14.111V6.722ZM5.222,13.389H4.111V12.278H5.222Zm0-2.222H4.111V10.056H5.222Zm0-2.222H4.111V7.833H5.222Zm0-2.222H4.111V5.611H5.222Zm2.222,6.667H6.333V12.278H7.444Zm0-2.222H6.333V10.056H7.444Zm0-2.222H6.333V7.833H7.444Zm0-2.222H6.333V5.611H7.444ZM13,13.389H8.556V12.278H9.667V11.167H8.556V10.056H9.667V8.944H8.556V7.833H13ZM11.889,8.944H10.778v1.111h1.111Zm0,2.222H10.778v1.111h1.111Z" transform="translate(-3 -4.5)"/>
</svg>
