<?xml version="1.0" encoding="UTF-8"?><svg id="Contours" xmlns="http://www.w3.org/2000/svg" viewBox="0 0 1780.74 1780.74"><defs><style>.cls-1{fill:none;}.cls-2{fill:#02215c;}</style></defs><rect id="rect.home" class="cls-1" width="1780.74" height="1780.74"/><g id="icon_text" transform="translate(-52.5 -0.5)"><path id="Icon_awesome-home" class="cls-2" d="M900.3,593.36l-213.04,175.47v189.38c0,10.22,8.28,18.5,18.5,18.5l129.48-.33c10.17-.06,18.39-8.32,18.39-18.5v-110.61c0-10.22,8.28-18.5,18.5-18.5h73.95c10.22,0,18.5,8.28,18.5,18.5v110.52c-.02,10.22,8.24,18.52,18.45,18.54h.04l129.44,.36c10.22,0,18.5-8.28,18.5-18.5v-189.49l-213-175.34c-5.16-4.17-12.53-4.17-17.7,0Zm336.52,119.26l-96.61-79.62v-160.07c0-7.66-6.21-13.87-13.87-13.87h-64.75c-7.66,0-13.87,6.21-13.87,13.87v83.92l-103.39-85.12c-20.48-16.85-50.02-16.85-70.49,0l-292.49,240.89c-5.9,4.88-6.73,13.62-1.85,19.52l29.47,35.82c4.86,5.92,13.6,6.77,19.52,1.91l.03-.02,271.79-223.86c5.16-4.15,12.51-4.15,17.67,0l271.83,223.86c5.9,4.88,14.64,4.05,19.52-1.85l29.47-35.82c4.86-5.92,4.01-14.65-1.9-19.52l-.06-.05h-.02Z"/></g></svg>