<?xml version="1.0" encoding="UTF-8"?><svg id="Contours" xmlns="http://www.w3.org/2000/svg" viewBox="0 0 2038 2038"><defs><style>.cls-1{fill:#02215c;}</style></defs><path class="cls-1" d="M1804.75,0c.25,37,.17,74,.35,110.99,.02,4.66-1.06,6.13-5.97,6.12-95.33-.15-190.66-.1-285.99-.14-8.35,0-8.23,2.15-8.22,7.85,.13,75.5,.04,150.99,.19,226.49,0,4.63-1.19,5.79-5.8,5.79-318.82-.11-637.64-.12-956.46,.01-4.96,0-5.95-1.53-5.94-6.14,.13-75.66,.09-151.33,.09-226.99,0-6.62-.36-6.98-6.98-6.98-36.5,0-73,.03-109.5-.02-6.66,0-7.64,1.76-7.63,7.47,.15,95.5,.08,190.99,.19,286.49,0,4.53-.84,6.23-5.89,6.2-34.83-.24-69.66-.22-104.49-.02-4.61,.03-5.81-1.15-5.81-5.79,.14-95.83,.11-191.66,.11-287.49,0-6.39-.43-6.83-6.63-6.83-36,0-72-.08-107.99,.1-4.47,.02-5.49-1.32-5.47-5.61,.16-37,.09-74,.09-111.25,542.5-.25,1085-.25,1627.75-.25Z"/><path class="cls-1" d="M970.25,2038c-4.01-.33-7.78-.68-11.54-.99-1.47-.12-3.7,.45-4.29-.31-3.69-4.73-8.74-3.61-13.55-3.7-.33,0-.83,.14-.98-.02-5.52-6.36-14.2-2.45-20.87-6.57-4.07-2.52-8.54-6.32-14.7-5.69-3.11,.32-7.17-1.65-9.68-3.86-5.8-5.08-13.67-4.15-19.8-7.87-.68-.41-1.34-.93-1.86-1.53-4.85-5.6-11.32-8.34-18.17-10.47-.29-.09-.55-.29-.8-.48-5.7-4.35-10.89-9.73-17.2-12.83-8.66-4.25-13.61-12.92-21.39-17.21-15.37-8.47-24.42-23.23-37.38-33.93-1.46-7.47-9.32-10.6-11.94-16.56-2.88-6.54-8.05-10.36-12.01-15.54-2.13-2.79-3.36-6.25-5.1-9.35-1.67-2.98-3.5-5.88-5.23-8.84-2.27-3.89-4.69-7.7-6.71-11.72-1.99-3.99-3.31-8.32-5.38-12.26-2.82-5.37-6.48-10.09-6.97-16.71-.3-4-3.53-7.77-5.31-11.7-.95-2.1-1.68-4.31-2.37-6.51-.47-1.49-.17-3.71-1.12-4.46-3.63-2.87-2.53-6.72-3.02-10.36-.36-2.69-1.83-5.21-2.68-7.85-.52-1.63-1.08-3.32-1.15-5-.18-4.18,.64-8.53-3.4-11.66-.65-.5-.61-2.09-.63-3.17-.06-4.83-.11-9.67,0-14.5,.09-3.81,.08-7.42-3.25-10.22-.75-.63-.75-2.38-.75-3.62-.03-51.65,.01-103.31-.12-154.96-.01-3.95,1.46-4.72,4.93-4.6,5.99,.21,11.99,.06,17.99,.06,203.62,0,407.23,0,610.85,0,6.01,0,6.36-.99,6.35,6.56-.05,50.65,0,101.31-.12,151.96,0,2.04-1.35,4.07-2.04,6.12-.64,1.9-1.67,3.79-1.79,5.73-.27,4.32-.06,8.66-.09,12.99-.02,3.7,.81,7.55-2.92,10.36-.87,.65-1,2.61-1.03,3.98-.1,4.49,.65,9.08-2.98,12.81-.76,.78-.96,2.32-1.02,3.53-.2,4.3,.91,8.88-3.03,12.27-.45,.39-1.01,1.07-.97,1.56,.69,7.23-4.04,12.33-7.05,18.1-.36,.68-1.01,1.42-.95,2.08,.6,7.07-4.09,11.95-6.97,17.64-3.34,6.58-6.07,13.47-9.09,20.22-.25,.56-.55,1.18-1,1.57-5.81,5.08-9,11.64-11.07,18.93-.32,1.12-1.73,1.96-2.7,2.87-9.05,8.46-13.75,20.64-24.03,28.04-5.96,14.48-19.97,21.86-29.34,33.34-9.26,2.57-13.68,11.17-20.71,16.49-5.04,3.81-10.93,6.49-16.45,9.66-.67,.38-1.58,.54-2.03,1.09-4.61,5.67-11.43,7.54-17.58,10.69-5.13,2.63-9.77,6.23-14.59,9.45-.81,.54-1.69,2.01-2.15,1.86-5.93-1.93-9.88,2.96-14.8,4.34-4.2,1.18-7.84,4.32-11.8,6.46-1.2,.65-2.64,.85-3.95,1.31-2.76,.97-5.46,2.18-8.28,2.91-2.45,.63-5.09,.53-7.54,1.14-2.83,.71-5.54,1.91-8.33,2.78-1.64,.51-3.33,1.04-5.02,1.11-4.18,.19-8.53-.67-11.66,3.43-.55,.72-2.41,.54-3.67,.61-4.09,.21-8.18,.35-12.27,.77-33.83,.25-67.67,.25-101.75,.25Z"/><path class="cls-1" d="M0,961.25c78.47-.25,156.93-.22,235.4-.33,4.13,0,5.73,.74,5.71,5.36-.2,36.48-.2,72.97,0,109.45,.02,4.62-1.58,5.36-5.71,5.36-78.3-.11-156.6-.08-235.15-.08-.25-39.83-.25-79.67-.25-119.75Z"/><path class="cls-1" d="M2038,1080.75c-77.13,.25-154.27,.22-231.4,.33-4.13,0-5.73-.74-5.71-5.36,.2-36.48,.2-72.97,0-109.45-.02-4.62,1.58-5.36,5.71-5.36,76.97,.11,153.93,.08,231.15,.08,.25,39.83,.25,79.67,.25,119.75Z"/><path class="cls-1" d="M1224,1473c-46.16,0-91.83-.06-137.49,.09-4.28,.01-5.61-1-5.6-5.47,.12-116.33,.11-232.66,.02-348.99,0-3.13,1.01-5.15,3.13-7.26,48.72-48.62,97.38-97.3,146.05-145.97,4.05-4.05,4.19-8.58,.14-12.64-25.66-25.72-51.35-51.41-77.07-77.07-4.19-4.18-8.59-3.76-13.34,.99-37.71,37.71-75.42,75.42-113.13,113.13-4.64,4.64-6.72,4.64-11.36,0-37.59-37.59-75.19-75.19-112.78-112.78-5.73-5.73-9.36-5.71-15.13,.05-24.87,24.87-49.6,49.86-74.71,74.48-4.78,4.69-4.02,10.76,.2,14.96,48.31,48.09,96.45,96.35,144.72,144.48,2.4,2.39,3.47,4.66,3.47,8.13-.1,116-.12,231.99,.03,347.99,0,4.92-1.47,5.97-6.12,5.97-106.66-.12-213.33-.11-319.99-.03-3.22,0-5.53-.81-7.74-3.2-4.3-4.65-8.7-9.23-13.44-13.42-4.5-3.98-11.44-5.01-14.48-10.71-8.99-16.83-26.16-26.39-36.71-41.42-5.11-7.28-12.47-12.64-16.32-20.14-3.27-6.37-8.38-10.51-12.32-15.89-3.74-5.11-6.48-10.94-9.66-16.46-.15-.26-.16-.63-.35-.85-3.48-4.09-5.89-9.4-9.24-12.97-6.34-6.75-8.52-15.45-13.28-22.81-2.16-3.34-4.36-6.8-6.77-10.11-2.18-3-4.05-6.29-5.65-9.64-3.12-6.53-6.09-13.14-8.87-19.82-2.66-6.4-4.76-13.03-7.55-19.37-1.8-4.1-4.39-7.85-6.65-11.75-.24-.42-1.01-.85-.93-1.08,2-5.89-2.76-9.93-4.24-14.8-1.77-5.84-5.01-11.23-7.49-16.88-.43-.98-.18-2.24-.33-3.36-.21-1.56,.01-3.57-.87-4.59-3.4-3.96-2.41-8.74-3.35-13.2-1.29-6.11-4.27-11.85-6.42-17.79-.63-1.75-1.21-3.62-1.28-5.45-.15-4.04,.48-8.13-3.26-11.24-.83-.69-.64-2.69-.79-4.1-.59-5.64,1.84-11.81-3.74-16.57-1.08-.92-.22-4.12-.27-6.27-.07-2.97,1.05-6.96-.44-8.72-5.72-6.72-2.94-14.38-3.47-21.63-.29-3.9,.23-7.78-3.31-10.72-.75-.62-.74-2.38-.74-3.62-.04-42.33-.03-84.66-.03-127,0-1-.42-2.5,.07-2.92,6.99-5.96,2.94-13.92,3.85-20.93,.48-3.64-.64-7.43,2.95-10.39,1.11-.92,.91-3.56,1.1-5.44,.68-6.76-2.12-14.13,3.64-20.03,.53-.54,.35-1.85,.37-2.81,.12-4.31-.84-8.79,2.94-12.34,.86-.81,1-2.64,1.03-4,.09-4.18-.52-8.39,2.96-11.85,.93-.93,1-2.96,1.04-4.5,.12-4.02-.65-8.13,2.97-11.34,.86-.77,.66-2.66,1.1-3.99,.77-2.34,1.65-4.65,2.51-6.96,.11-.29,.38-.52,.46-.81,1.68-5.97,3.32-11.96,5.03-17.92,.42-1.48,.96-2.94,1.6-4.33,.45-.99,1.58-1.82,1.67-2.79,.46-4.79,1.88-9.06,4.6-13.15,1.92-2.89,2.74-6.51,4.12-9.76,2.3-5.38,4.64-10.75,6.99-16.1,2.98-6.77,5.86-13.58,9.05-20.25,1.74-3.63,4.17-6.93,6.02-10.51,2.13-4.1,3.89-8.39,5.96-12.52,.77-1.53,1.99-2.83,2.9-4.3,1.73-2.78,3.29-5.66,5.11-8.37,.61-.91,1.68-1.74,2.72-2.09,1.04-.36,2.31-.08,3.47-.08,339.82,0,679.64,0,1019.46-.1,4.23,0,6.64,.98,7.34,5.26,.14,.88,.53,1.94,1.17,2.48,5.48,4.56,7.44,11.14,10.28,17.26,1.89,4.07,4.59,7.75,6.6,11.77,1.86,3.71,3.2,7.68,4.94,11.45,1.17,2.53,2.8,4.84,3.93,7.37,2.58,5.76,5.01,11.59,7.43,17.42,1.6,3.84,2.96,7.78,4.64,11.58,2.49,5.64,5.21,11.17,7.7,16.81,.43,.98-.04,2.33,.31,3.37,2.21,6.58,4.52,13.12,6.83,19.67,.1,.28,.6,.44,.67,.72,1.51,6.21,2.89,12.46,4.5,18.64,.77,2.98,2.13,5.81,2.89,8.79,.62,2.46,.52,5.09,1.13,7.55,.71,2.83,1.92,5.53,2.79,8.33,.51,1.64,1.03,3.34,1.1,5.03,.18,4.19-.68,8.55,3.45,11.65,.64,.48,.56,2.1,.57,3.19,.06,4.5-.04,9,.06,13.5,.03,1.22,.17,2.77,.9,3.58,4.01,4.37,2.76,9.67,3.12,14.76,.41,5.95-2.29,12.64,3.82,17.46,.57,.45,.12,2.23,.12,3.39,0,42,.03,84-.09,125.99,0,1.88-1.31,3.76-1.98,5.64-.67,1.89-1.73,3.77-1.85,5.7-.28,4.48-.06,8.99-.1,13.49-.03,3.54-.15,6.6-2.65,10.01-2.04,2.78-1.15,7.8-1.3,11.83-.11,2.81,.08,5.34-2.47,7.59-1.25,1.1-1.4,3.77-1.52,5.75-.33,5.4,1.17,11.09-3.16,15.74-.66,.7-.83,2.04-.87,3.1-.16,4.47,.79,9.11-3.01,12.81-.77,.74-.64,2.36-1.04,3.53-.81,2.33-1.94,4.57-2.5,6.95-.72,3.08-.87,6.29-1.54,9.38-.45,2.1-1.33,4.1-2.08,6.13-.16,.43-.73,.72-.85,1.14-1.7,6.13-3.36,12.28-5.02,18.42-.28,1.05-.34,2.22-.86,3.14-3.21,5.7-7.28,10.86-7.36,18.04-.03,2.96-2.31,5.97-3.82,8.83-1.9,3.57-4.06,6.99-6.11,10.47-.47,.8-1.46,1.71-1.33,2.4,1.11,5.74-3.46,9.64-4.64,14.65-.72,3.09-2,6.41-4.04,8.76-5.85,6.73-6.71,16.34-13.86,22.43-2.95,2.51-4.24,7.11-5.93,10.92-2.42,5.43-4.71,10.72-8.55,15.52-4.53,5.66-7.72,12.4-11.49,18.67-.16,.26-.18,.61-.36,.85-4.82,6.17-9.81,12.22-14.45,18.53-6.03,8.2-13.78,15.45-18.94,23.75-8.77,14.1-22.22,23.13-32.32,35.52-3.9,4.79-6.36,11.45-11.2,14.61-10.39,6.78-18.73,15.54-27.57,23.91-.95,.9-3.04,.8-4.61,.8-61.02,.04-122.04,.03-183.56,.03Z"/><path class="cls-1" d="M753,597c-70.5,0-140.5-.04-210.5,.09-4.29,0-5.63-1-5.6-5.47,.18-36.5,.18-73,0-109.5-.02-4.3,1.32-5.2,5.36-5.2,319.16,.09,638.33,.09,957.49,0,4.04,0,5.37,.92,5.35,5.21-.18,36.5-.18,73,0,109.5,.02,4.47-1.33,5.46-5.61,5.46-248.66-.1-497.33-.09-746.49-.09Z"/><path class="cls-1" d="M1930.25,1490.25c-1.92,4.56-3.12,9.16-5.52,13.01-.79,1.27-4.99,1.42-7.1,.65-5.04-1.85-9.74-4.61-14.63-6.9-7.96-3.72-15.94-7.38-23.94-11-6.73-3.05-13.59-5.85-20.23-9.07-3.77-1.83-6.99-5.07-10.89-6.25-5.21-1.58-9.02-6.06-15.17-5.97-3.53,.06-7.19-2.5-10.66-4.16-7.94-3.79-15.88-7.58-23.65-11.68-6.45-3.4-12.66-7.26-19.01-10.86-.92-.52-2.05-1-3.07-.98-6.39,.15-11.08-3.81-16.35-6.45-4.12-2.07-8.45-3.73-12.67-5.6-2.96-1.31-6-2.47-8.82-4.03-6.39-3.53-12.57-7.44-19.04-10.8-2-1.04-4.77-.48-6.97-1.28-1.39-.5-3.15-1.99-3.4-3.3-1.59-8.09,1.99-14.77,6.07-21.42,2.4-3.91,3.9-8.36,5.81-12.58,1.4-3.09,2.6-6.28,4.22-9.25,3.48-6.41,7.18-12.7,10.78-19.04,.38-.67,1.02-1.42,.95-2.08-.76-7.27,4.16-12.27,7-18.13,3.22-6.65,6.08-13.47,9.03-20.25,.96-2.2,4.94-2.35,7.64-.84,4.56,2.57,9.37,4.71,14.1,6.98,2.92,1.4,5.98,2.52,8.8,4.08,6.38,3.54,12.66,7.27,18.98,10.91,.53,.3,1.23,.8,1.69,.67,5.86-1.7,9.64,3.4,14.68,4.57,3.77,.87,7.06,3.77,10.59,5.73,3.66,2.03,7.3,4.09,11.02,6,4.53,2.32,8.94,5.2,13.76,6.55,5.4,1.51,9.32,6.42,15.77,5.78,2.79-.28,5.93,2.28,8.8,3.76,3.58,1.84,7.04,3.92,10.58,5.84,3.8,2.07,7.6,4.15,11.47,6.11,4.26,2.16,8.44,4.68,12.94,6.14,5.31,1.71,9.33,5.99,15.56,6.2,3.96,.14,7.81,3.38,11.7,5.24,4.45,2.13,8.9,4.27,13.33,6.44,3.46,1.7,7.22,3.04,10.27,5.31,5.58,4.17,5.74,9.83,2.02,15.69-2.45,3.86-3.8,8.4-5.67,12.62-1.31,2.96-2.47,6-4.03,8.82-3.53,6.39-8.14,12.34-10.62,19.09-1.85,5.02-6.38,9.02-5.62,15.33,.31,2.58-2.31,5.57-3.75,8.3-2.09,3.98-4.31,7.88-6.73,12.07Z"/><path class="cls-1" d="M321.25,1369.75c2.61,4.27,5.01,8.27,7.28,12.34,.43,.78,.51,1.87,.44,2.79-.23,3.39,.7,6.11,3.02,8.81,2.39,2.78,3.92,6.32,5.68,9.61,.12,.22-.94,1.36-1.62,1.66-4.81,2.06-9.64,4.09-14.51,5.98-5.17,2.01-9.26,6.24-15.48,6.28-3.12,.02-6.31,2.28-9.32,3.81-4,2.03-7.85,4.37-11.8,6.52-3.39,1.85-6.76,3.77-10.26,5.4-4.04,1.88-8.28,3.36-12.32,5.24-4.75,2.21-9.71,4.21-14.01,7.15-6.21,4.25-13.9,4.21-20.23,7.96-6.52,3.87-13.2,7.5-19.95,10.95-3.69,1.88-7.71,3.09-11.51,4.77-2.68,1.18-5.2,2.72-7.86,3.95-5.59,2.58-11.23,5.07-16.85,7.59-6.61,2.95-13.29,5.75-19.81,8.89-4.04,1.95-7.76,4.56-11.76,6.62-3.55,1.83-7.29,3.3-10.95,4.93-.56,.25-1.16,.45-1.67,.78-2.02,1.29-3.3,5.58-6.56,1.82-1.63-1.88-2.99-4.05-4.14-6.27-1.84-3.55-3.33-7.29-5.11-10.87-3.71-7.46-7.04-15.18-11.43-22.23-3.97-6.35-4.12-13.93-7.92-20.25-3.82-6.36-7.99-12.73-10.44-19.64-2.78-7.87-9.81-14.03-9.19-23.22,.16-2.35,.14-4.11,3.3-4.24,1.54-.06,3.06-1.37,4.54-2.2,.82-.46,1.57-1.64,2.3-1.6,7.69,.36,13.2-4.17,19.34-7.77,6.2-3.64,13.23-5.84,19.72-9.04,6.66-3.28,13.09-7.01,19.63-10.55,.41-.22,.82-.72,1.2-.69,7.73,.6,13.16-4.28,19.35-7.67,6.19-3.38,13.04-5.53,19.38-8.67,6.8-3.36,13.34-7.23,19.98-10.89,.41-.23,.81-.81,1.16-.77,9.32,1.13,15.54-6,23.31-8.96,6.88-2.62,13.07-7.02,19.7-10.35,3.7-1.86,7.74-3.04,11.52-4.76,8.27-3.77,16.51-7.62,24.69-11.59,3.16-1.54,9.56,1.78,10.98,5.72,1.51,4.2,2.62,8.81,5.21,12.26,2.09,2.78,2.35,5.36,2.92,8.4,.64,3.4,2.37,6.66,3.98,9.81,2.04,4.01,4.56,7.77,6.63,11.76,1.91,3.69,3.5,7.54,5.23,11.33,1.34,2.94,2.67,5.9,4.25,9.09Z"/><path class="cls-1" d="M84.75,613.75c.72-1.72,1.07-3.25,1.7-4.64,.51-1.13,2.11-2.22,1.96-3.12-.92-5.72,3.44-9.66,4.69-14.63,.77-3.09,2.38-6.02,3.94-8.84,3.53-6.38,7.41-12.58,10.87-18.99,3.15-5.83,6.06-11.8,8.78-17.85,.69-1.53,.11-3.58,.35-5.36,.14-1.04,.75-2.01,1.15-3.01,.92,.39,1.89,.69,2.75,1.18,1.09,.62,2.23,2.14,3.11,1.98,5.77-1.09,9.63,3.54,14.66,4.66,3.09,.69,6,2.41,8.82,3.97,6.38,3.53,12.57,7.42,19,10.86,5.7,3.05,11.39,7.04,17.52,8.13,5.3,.94,9.59,3.65,14.52,5.01,3.08,.85,6.02,2.39,8.84,3.95,6.39,3.52,12.57,7.42,19.02,10.81,3.93,2.06,8.66,2.82,12.26,5.29,7.42,5.09,16.78,5.12,24.21,10.61,5.8,4.29,13.37,6.14,20.05,9.31,3.63,1.73,6.85,4.43,10.58,5.83,5.33,2,9.58,6.15,15.94,6.44,3.96,.18,7.74,3.54,11.68,5.31,4.91,2.21,9.9,4.25,14.85,6.38,.99,.43,1.94,.94,2.91,1.41-.72,.86-1.28,2.06-2.21,2.52-2.48,1.23-3.66,2.64-3.94,5.76-.28,3.04-2.28,6-3.85,8.82-2.05,3.67-4.44,7.16-6.66,10.74-.32,.52-.68,1.13-.69,1.7-.03,4.9-1.99,9.04-4.49,13.16-2.39,3.93-4.13,8.27-6.13,12.44-2,4.17-3.98,8.34-5.95,12.53-1.57,3.35-2.99,6.77-4.68,10.05-1.99,3.85-4.37,7.51-6.25,11.41-.79,1.64-.91,3.68-1.03,5.55-.26,4.01-4.86,8.22-8.84,7.91-.17-.01-.35,.05-.5,0-5.14-2.06-10.3-4.08-15.41-6.23-4.4-1.85-8.8-3.71-13.08-5.8-3.61-1.77-7.05-3.9-10.58-5.83-3.8-2.07-7.6-4.16-11.46-6.11-4.26-2.16-8.61-4.16-12.89-6.27-.98-.48-1.85-1.66-2.78-1.67-10.32-.16-17.75-7.09-26.43-11.06-6.72-3.08-13.58-5.86-20.22-9.08-3.77-1.82-7.23-4.28-10.84-6.42-.93-.55-1.93-1.48-2.87-1.44-7.11,.31-12.27-4.14-18.12-7.02-6.63-3.26-13.55-5.9-20.2-9.12-3.77-1.83-6.99-5.08-10.89-6.25-5.21-1.57-9.05-5.87-15.15-6.01-3.95-.09-7.84-3.29-11.73-5.16-.7-.34-1.17-1.21-1.89-1.48-2.74-1.02-6.77-.27-6.22-5.32,.35-3.17-.04-6.04,2.49-9.07,2.75-3.28,3.68-8.05,5.59-12.08,.93-1.96,2.29-3.72,3.71-5.82Z"/><path class="cls-1" d="M1916.75,538.75c4.76-3.15,7.03-2.43,8.8,2.28,2.65,7.06,5.04,14.26,8.21,21.08,3.19,6.87,7.43,13.24,10.79,20.03,3.13,6.34,4.9,13.5,8.76,19.3,4.37,6.57,3.88,14.73,8.54,21.04,2.56,3.46,4.19,7.59,6.47,11.28,2.19,3.54-1.35,9.72-5.99,11.34-4.48,1.57-8.67,3.98-12.98,6.05-4.03,1.93-8.01,3.98-12.08,5.83-5.75,2.61-11.57,5.05-17.34,7.6-6.62,2.92-13.29,5.74-19.81,8.88-4.04,1.95-7.76,4.56-11.76,6.62-3.56,1.83-7.28,3.32-10.96,4.91-5.79,2.52-11.6,4.98-17.39,7.5-6.5,2.82-13.05,5.52-19.44,8.56-4.05,1.93-7.79,4.51-11.77,6.59-3.68,1.93-7.48,3.66-11.28,5.33-5.78,2.54-11.6,4.99-17.42,7.41-3.84,1.59-7.83,2.85-11.56,4.67-4.04,1.97-7.78,4.53-11.76,6.61-3.68,1.93-7.54,3.52-11.27,5.35-1.67,.82-3.33,1.73-4.81,2.84-3.4,2.53-6.41,1.37-7.77-2.56-1.31-3.76-3.25-7.32-5.04-10.9-2.41-4.84-4.86-9.66-7.42-14.42-3.59-6.69-8.21-13-10.61-20.07-1.57-4.65-5.66-8.17-5.21-14.04,.28-3.66-2.85-7.65-4.68-11.38-3.68-7.48-7.51-14.88-11.27-22.32-.28-.55-.44-1.15-.72-1.7-.78-1.52-2.59-4.03-2.23-4.37,2.2-2.18,3.73-4.87,7.76-5.37,4.91-.61,9.64-3.08,14.31-5.09,4.67-2.01,9.22-4.32,13.72-6.69,3.98-2.09,7.76-4.57,11.75-6.65,3.68-1.92,7.5-3.61,11.3-5.28,5.78-2.54,11.61-4.96,17.39-7.48,6.5-2.82,13.04-5.54,19.43-8.59,4.05-1.93,7.8-4.49,11.78-6.57,3.68-1.93,7.46-3.69,11.27-5.36,5.78-2.54,11.61-4.96,17.43-7.38,3.84-1.59,7.82-2.88,11.55-4.7,4.04-1.97,7.79-4.5,11.77-6.59,3.68-1.93,7.52-3.57,11.27-5.36,3.9-1.86,7.75-3.82,11.68-5.6,2.1-.95,4.31-1.68,6.51-2.37,1.49-.47,3.19-.41,4.55-1.08,5.13-2.52,10.16-5.24,15.23-7.88,.69-.36,1.38-.71,2.31-1.31Z"/></svg>