<?xml version="1.0" encoding="UTF-8"?><svg id="Contours" xmlns="http://www.w3.org/2000/svg" viewBox="0 0 1326.13 1435.2"><defs><style>.cls-1{fill:#2a9b1b;}</style></defs><path id="Icon_material-date-range-2" class="cls-1" d="M3.73,5.59h-1.24v1.24h1.24v-1.24Zm2.48,0h-1.24v1.24h1.24v-1.24Zm2.48,0h-1.24v1.24h1.25v-1.24Zm1.24-4.35h-.62V0h-1.24V1.24H3.11V0H1.86V1.24h-.62C.56,1.24,0,1.8,0,2.48h0V11.18c0,.69,.55,1.24,1.24,1.24H9.94c.68,0,1.24-.56,1.24-1.24V2.48c0-.68-.56-1.24-1.24-1.24h0Zm0,9.94H1.24V4.35H9.94v6.83Z"/><path id="Icon_material-date-range-2-2" class="cls-1" d="M652.43,817.64h-112.36v112.27h112.36v-112.27Zm224.54,0h-112.27v112.27h112.27v-112.27Zm224.54,0h-112.27v112.27h112.72l-.45-112.27Zm112.27-393.03h-56.13v-112.27h-112.18v112.27h-449.16v-112.27h-112.36v112.27h-56.13c-61.75,.05-111.78,50.15-111.73,111.91,0,.12,0,.24,0,.36l-.54,786.06c0,62,50.26,112.27,112.27,112.27h786.42c61.78-.4,111.71-50.49,111.91-112.27V536.51c-.4-61.78-50.49-111.71-112.27-111.91h-.09Zm0,898.33H427.35V705.37h786.42v617.56Z"/></svg>