<?xml version="1.0" encoding="UTF-8"?><svg id="Contours" xmlns="http://www.w3.org/2000/svg" viewBox="0 0 1239.81 1323.65"><defs><style>.cls-1{fill:#2a9b1b;}</style></defs><path id="Icon_material-date-range-2" class="cls-1" d="M3.73,5.59h-1.24v1.24h1.24v-1.24Zm2.48,0h-1.24v1.24h1.24v-1.24Zm2.48,0h-1.24v1.24h1.25v-1.24Zm1.24-4.35h-.62V0h-1.24V1.24H3.11V0H1.86V1.24h-.62C.56,1.24,0,1.8,0,2.48h0V11.18c0,.69,.55,1.24,1.24,1.24H9.94c.68,0,1.24-.56,1.24-1.24V2.48c0-.68-.56-1.24-1.24-1.24h0Zm0,9.94H1.24V4.35H9.94v6.83Z"/><path id="Icon_material-person-2" class="cls-1" d="M782.43,866.2c126.3,2.27,230.53-98.28,232.79-224.58,2.27-126.3-98.28-230.53-224.58-232.79-2.74-.05-5.47-.05-8.21,0-124.53,4.19-224.5,104.19-228.65,228.73,4.19,124.5,104.15,224.46,228.65,228.65Zm0,114.36c-152.66,0-457.38,76.29-457.38,228.73v114.36h914.75v-114.36c0-152.43-304.72-228.73-457.38-228.73Z"/></svg>