<?xml version="1.0" encoding="UTF-8"?><svg id="Contours" xmlns="http://www.w3.org/2000/svg" viewBox="0 0 1780.74 1770.19"><defs><style>.cls-1{fill:#02215c;}.cls-2{fill:none;}</style></defs><rect id="rect.home" class="cls-2" width="1780.74" height="1770.19"/><g id="icon_text"><path id="Icon_awesome-home" class="cls-1" d="m867.7,578.67l-568.72,465.65v502.56c0,27.12,22.1,49.09,49.39,49.09l345.65-.88c27.15-.16,49.09-22.08,49.09-49.09v-293.53c0-27.12,22.1-49.09,49.39-49.09h197.41c27.28,0,49.39,21.97,49.39,49.09v293.29c-.05,27.12,22,49.15,49.25,49.2h.11l345.54.96c27.28,0,49.39-21.97,49.39-49.09v-502.85l-568.61-465.3c-13.77-11.07-33.45-11.07-47.25,0h-.03Zm898.35,316.48l-257.9-211.29v-424.78c0-20.33-16.58-36.81-37.03-36.81h-172.85c-20.45,0-37.03,16.48-37.03,36.81v222.7l-276-225.88c-54.67-44.72-133.53-44.72-188.17,0L16.25,895.16c-15.75,12.95-17.97,36.14-4.94,51.8l78.67,95.06c12.97,15.71,36.31,17.97,52.11,5.07l.08-.05L867.72,452.97c13.77-11.01,33.4-11.01,47.17,0l725.66,594.06c15.75,12.95,39.08,10.75,52.11-4.91l78.67-95.06c12.97-15.71,10.7-38.88-5.07-51.8l-.16-.13h-.05v.03Z"/></g></svg>