<?xml version="1.0" encoding="UTF-8"?><svg id="Contours" xmlns="http://www.w3.org/2000/svg" viewBox="0 0 1335.05 1397.97"><defs><style>.cls-1{fill:#323232;}.cls-2{fill:#2a9b1b;}</style></defs><path id="Icon_material-date-range-2" class="cls-2" d="M3.73,5.59h-1.24v1.24h1.24v-1.24Zm2.48,0h-1.24v1.24h1.24v-1.24Zm2.48,0h-1.24v1.24h1.25v-1.24Zm1.24-4.35h-.62V0h-1.24V1.24H3.11V0H1.86V1.24h-.62C.56,1.24,0,1.8,0,2.48h0V11.18c0,.69,.55,1.24,1.24,1.24H9.94c.68,0,1.24-.56,1.24-1.24V2.48c0-.68-.56-1.24-1.24-1.24h0Zm0,9.94H1.24V4.35H9.94v6.83Z"/><path id="Icon_ionic-ios-search" class="cls-1" d="M1324.14,1330.12l-260.8-263.32c127.83-160.68,101.2-394.57-59.48-522.4-160.68-127.83-394.57-101.2-522.4,59.48-127.83,160.68-101.2,394.57,59.48,522.4,136.57,108.65,330.32,107.68,465.8-2.32l259.14,261.58c15.25,15.98,40.54,16.64,56.6,1.48,16.09-15.29,16.83-40.7,1.65-56.91Zm-552.95-202.98c-162.12-.03-293.51-131.48-293.48-293.6,.03-162.12,131.48-293.51,293.6-293.48,162.12,.03,293.51,131.48,293.48,293.6-.02,77.82-30.94,152.46-85.96,207.49-54.96,55.25-129.75,86.22-207.68,85.99h.04Z"/></svg>